<mxfile host="drawio-plugin" modified="2022-02-08T06:33:01.841Z" agent="5.0 (Windows NT 6.2; Win64; x64) AppleWebKit/537.36 (KHTML, like Gecko) Chrome/89.0.4389.114 Safari/537.36" etag="YnbsaLK-rGeo6iTz0vkm" version="15.5.4" type="embed"><diagram id="C5RBs43oDa-KdzZeNtuy" name="Page-1"><mxGraphModel dx="1225" dy="744" grid="1" gridSize="10" guides="1" tooltips="1" connect="1" arrows="1" fold="1" page="1" pageScale="1" pageWidth="827" pageHeight="1169" math="0" shadow="0"><root><mxCell id="WIyWlLk6GJQsqaUBKTNV-0"/><mxCell id="WIyWlLk6GJQsqaUBKTNV-1" parent="WIyWlLk6GJQsqaUBKTNV-0"/><mxCell id="zkfFHV4jXpPFQw0GAbJ--0" value="FilterExpression" style="swimlane;fontStyle=2;align=center;verticalAlign=top;childLayout=stackLayout;horizontal=1;startSize=26;horizontalStack=0;resizeParent=1;resizeLast=0;collapsible=1;marginBottom=0;rounded=0;shadow=0;strokeWidth=1;" parent="WIyWlLk6GJQsqaUBKTNV-1" vertex="1"><mxGeometry x="414" y="120" width="160" height="100" as="geometry"><mxRectangle x="230" y="140" width="160" height="26" as="alternateBounds"/></mxGeometry></mxCell><mxCell id="zkfFHV4jXpPFQw0GAbJ--4" value="" style="line;html=1;strokeWidth=1;align=left;verticalAlign=middle;spacingTop=-1;spacingLeft=3;spacingRight=3;rotatable=0;labelPosition=right;points=[];portConstraint=eastwest;" parent="zkfFHV4jXpPFQw0GAbJ--0" vertex="1"><mxGeometry y="26" width="160" height="8" as="geometry"/></mxCell><mxCell id="Cu72sWGNNY341dS4-z_g-9" value="" style="endArrow=open;shadow=0;strokeWidth=1;rounded=0;endFill=1;edgeStyle=elbowEdgeStyle;elbow=vertical;exitX=0.75;exitY=0;exitDx=0;exitDy=0;" parent="zkfFHV4jXpPFQw0GAbJ--0" edge="1"><mxGeometry x="0.5" y="41" relative="1" as="geometry"><mxPoint x="340" y="240" as="sourcePoint"/><mxPoint x="160" y="60" as="targetPoint"/><mxPoint x="-40" y="32" as="offset"/><Array as="points"><mxPoint x="-20" y="60"/><mxPoint x="-120" y="70"/><mxPoint x="-230" y="101"/><mxPoint x="-300" y="120"/><mxPoint x="-340" y="120"/><mxPoint x="-350" y="160"/><mxPoint x="-250" y="101"/><mxPoint x="-270" y="120"/><mxPoint x="-370" y="100"/></Array></mxGeometry></mxCell><mxCell id="Cu72sWGNNY341dS4-z_g-10" value="1" style="resizable=0;align=left;verticalAlign=bottom;labelBackgroundColor=none;fontSize=12;" parent="Cu72sWGNNY341dS4-z_g-9" connectable="0" vertex="1"><mxGeometry x="-1" relative="1" as="geometry"><mxPoint x="-38" y="4" as="offset"/></mxGeometry></mxCell><mxCell id="Cu72sWGNNY341dS4-z_g-11" value="1..n" style="resizable=0;align=right;verticalAlign=bottom;labelBackgroundColor=none;fontSize=12;" parent="Cu72sWGNNY341dS4-z_g-9" connectable="0" vertex="1"><mxGeometry x="1" relative="1" as="geometry"><mxPoint x="56" y="-10" as="offset"/></mxGeometry></mxCell><mxCell id="Cu72sWGNNY341dS4-z_g-12" value="subExpressions" style="text;html=1;resizable=0;points=[];;align=center;verticalAlign=middle;labelBackgroundColor=none;rounded=0;shadow=0;strokeWidth=1;fontSize=12;" parent="Cu72sWGNNY341dS4-z_g-9" vertex="1" connectable="0"><mxGeometry x="0.5" y="49" relative="1" as="geometry"><mxPoint x="46" y="-69" as="offset"/></mxGeometry></mxCell><mxCell id="zkfFHV4jXpPFQw0GAbJ--6" value="AndExpression" style="swimlane;fontStyle=0;align=center;verticalAlign=top;childLayout=stackLayout;horizontal=1;startSize=26;horizontalStack=0;resizeParent=1;resizeLast=0;collapsible=1;marginBottom=0;rounded=0;shadow=0;strokeWidth=1;" parent="WIyWlLk6GJQsqaUBKTNV-1" vertex="1"><mxGeometry x="170" y="360" width="160" height="60" as="geometry"><mxRectangle x="130" y="380" width="160" height="26" as="alternateBounds"/></mxGeometry></mxCell><mxCell id="zkfFHV4jXpPFQw0GAbJ--9" value="" style="line;html=1;strokeWidth=1;align=left;verticalAlign=middle;spacingTop=-1;spacingLeft=3;spacingRight=3;rotatable=0;labelPosition=right;points=[];portConstraint=eastwest;" parent="zkfFHV4jXpPFQw0GAbJ--6" vertex="1"><mxGeometry y="26" width="160" height="8" as="geometry"/></mxCell><mxCell id="zkfFHV4jXpPFQw0GAbJ--12" value="" style="endArrow=block;endSize=10;endFill=0;shadow=0;strokeWidth=1;rounded=0;edgeStyle=elbowEdgeStyle;elbow=vertical;" parent="WIyWlLk6GJQsqaUBKTNV-1" source="zkfFHV4jXpPFQw0GAbJ--6" target="zkfFHV4jXpPFQw0GAbJ--0" edge="1"><mxGeometry width="160" relative="1" as="geometry"><mxPoint x="200" y="203" as="sourcePoint"/><mxPoint x="200" y="203" as="targetPoint"/></mxGeometry></mxCell><mxCell id="zkfFHV4jXpPFQw0GAbJ--13" value="OrExpression" style="swimlane;fontStyle=0;align=center;verticalAlign=top;childLayout=stackLayout;horizontal=1;startSize=26;horizontalStack=0;resizeParent=1;resizeLast=0;collapsible=1;marginBottom=0;rounded=0;shadow=0;strokeWidth=1;" parent="WIyWlLk6GJQsqaUBKTNV-1" vertex="1"><mxGeometry x="630" y="360" width="160" height="70" as="geometry"><mxRectangle x="340" y="380" width="170" height="26" as="alternateBounds"/></mxGeometry></mxCell><mxCell id="zkfFHV4jXpPFQw0GAbJ--15" value="" style="line;html=1;strokeWidth=1;align=left;verticalAlign=middle;spacingTop=-1;spacingLeft=3;spacingRight=3;rotatable=0;labelPosition=right;points=[];portConstraint=eastwest;" parent="zkfFHV4jXpPFQw0GAbJ--13" vertex="1"><mxGeometry y="26" width="160" height="8" as="geometry"/></mxCell><mxCell id="zkfFHV4jXpPFQw0GAbJ--16" value="" style="endArrow=block;endSize=10;endFill=0;shadow=0;strokeWidth=1;rounded=0;edgeStyle=elbowEdgeStyle;elbow=vertical;" parent="WIyWlLk6GJQsqaUBKTNV-1" source="zkfFHV4jXpPFQw0GAbJ--13" target="zkfFHV4jXpPFQw0GAbJ--0" edge="1"><mxGeometry width="160" relative="1" as="geometry"><mxPoint x="210" y="373" as="sourcePoint"/><mxPoint x="310" y="271" as="targetPoint"/><Array as="points"><mxPoint x="610" y="290"/></Array></mxGeometry></mxCell><mxCell id="Cu72sWGNNY341dS4-z_g-1" value="" style="endArrow=open;shadow=0;strokeWidth=1;rounded=0;endFill=1;edgeStyle=elbowEdgeStyle;elbow=vertical;entryX=0;entryY=0.5;entryDx=0;entryDy=0;exitX=0.25;exitY=0;exitDx=0;exitDy=0;" parent="WIyWlLk6GJQsqaUBKTNV-1" source="zkfFHV4jXpPFQw0GAbJ--6" target="zkfFHV4jXpPFQw0GAbJ--0" edge="1"><mxGeometry x="0.5" y="41" relative="1" as="geometry"><mxPoint x="90" y="410" as="sourcePoint"/><mxPoint x="220" y="159" as="targetPoint"/><mxPoint x="-40" y="32" as="offset"/><Array as="points"><mxPoint x="380" y="170"/><mxPoint x="280" y="180"/><mxPoint x="170" y="211"/><mxPoint x="100" y="230"/><mxPoint x="60" y="230"/><mxPoint x="50" y="270"/><mxPoint x="150" y="211"/><mxPoint x="130" y="230"/><mxPoint x="30" y="210"/></Array></mxGeometry></mxCell><mxCell id="Cu72sWGNNY341dS4-z_g-2" value="1" style="resizable=0;align=left;verticalAlign=bottom;labelBackgroundColor=none;fontSize=12;" parent="Cu72sWGNNY341dS4-z_g-1" connectable="0" vertex="1"><mxGeometry x="-1" relative="1" as="geometry"><mxPoint x="-38" y="4" as="offset"/></mxGeometry></mxCell><mxCell id="Cu72sWGNNY341dS4-z_g-3" value="1..n" style="resizable=0;align=right;verticalAlign=bottom;labelBackgroundColor=none;fontSize=12;" parent="Cu72sWGNNY341dS4-z_g-1" connectable="0" vertex="1"><mxGeometry x="1" relative="1" as="geometry"><mxPoint x="-20" y="4" as="offset"/></mxGeometry></mxCell><mxCell id="Cu72sWGNNY341dS4-z_g-4" value="subExpressions" style="text;html=1;resizable=0;points=[];;align=center;verticalAlign=middle;labelBackgroundColor=none;rounded=0;shadow=0;strokeWidth=1;fontSize=12;" parent="Cu72sWGNNY341dS4-z_g-1" vertex="1" connectable="0"><mxGeometry x="0.5" y="49" relative="1" as="geometry"><mxPoint x="-27" y="38" as="offset"/></mxGeometry></mxCell><mxCell id="Cu72sWGNNY341dS4-z_g-5" value="OperatorExpression" style="swimlane;fontStyle=0;align=center;verticalAlign=top;childLayout=stackLayout;horizontal=1;startSize=26;horizontalStack=0;resizeParent=1;resizeLast=0;collapsible=1;marginBottom=0;rounded=0;shadow=0;strokeWidth=1;" parent="WIyWlLk6GJQsqaUBKTNV-1" vertex="1"><mxGeometry x="414" y="355" width="160" height="84" as="geometry"><mxRectangle x="340" y="380" width="170" height="26" as="alternateBounds"/></mxGeometry></mxCell><mxCell id="Cu72sWGNNY341dS4-z_g-14" value="jsonPath: String&lt;br&gt;operator: Operator&lt;br&gt;compareValue: String" style="text;html=1;align=left;verticalAlign=middle;resizable=0;points=[];autosize=1;strokeColor=none;fillColor=none;" parent="Cu72sWGNNY341dS4-z_g-5" vertex="1"><mxGeometry y="26" width="160" height="50" as="geometry"/></mxCell><mxCell id="Cu72sWGNNY341dS4-z_g-6" value="" style="line;html=1;strokeWidth=1;align=left;verticalAlign=middle;spacingTop=-1;spacingLeft=3;spacingRight=3;rotatable=0;labelPosition=right;points=[];portConstraint=eastwest;" parent="Cu72sWGNNY341dS4-z_g-5" vertex="1"><mxGeometry y="76" width="160" height="8" as="geometry"/></mxCell><mxCell id="Cu72sWGNNY341dS4-z_g-8" value="" style="endArrow=none;html=1;rounded=0;entryX=0.5;entryY=0;entryDx=0;entryDy=0;" parent="WIyWlLk6GJQsqaUBKTNV-1" target="Cu72sWGNNY341dS4-z_g-5" edge="1"><mxGeometry width="50" height="50" relative="1" as="geometry"><mxPoint x="370" y="290" as="sourcePoint"/><mxPoint x="490" y="320" as="targetPoint"/><Array as="points"><mxPoint x="510" y="290"/><mxPoint x="494" y="290"/></Array></mxGeometry></mxCell><mxCell id="Cu72sWGNNY341dS4-z_g-13" value="&lt;p style=&quot;margin: 0px ; margin-top: 4px ; text-align: center&quot;&gt;&lt;i&gt;&amp;lt;&amp;lt;Enum&amp;gt;&amp;gt;&lt;/i&gt;&lt;br&gt;&lt;b&gt;Operator&lt;/b&gt;&lt;/p&gt;&lt;hr size=&quot;1&quot;&gt;&lt;p style=&quot;margin: 0px ; margin-left: 4px&quot;&gt;equal&lt;/p&gt;&lt;p style=&quot;margin: 0px ; margin-left: 4px&quot;&gt;notEqual&lt;br&gt;less&lt;/p&gt;&lt;p style=&quot;margin: 0px ; margin-left: 4px&quot;&gt;lessOrEqual&lt;/p&gt;&lt;p style=&quot;margin: 0px ; margin-left: 4px&quot;&gt;greater&lt;/p&gt;&lt;p style=&quot;margin: 0px ; margin-left: 4px&quot;&gt;greaterOrEqual&lt;/p&gt;&lt;p style=&quot;margin: 0px ; margin-left: 4px&quot;&gt;containsIgnoreCase&lt;/p&gt;&lt;hr size=&quot;1&quot;&gt;&lt;p style=&quot;margin: 0px ; margin-left: 4px&quot;&gt;&lt;br&gt;&lt;br&gt;&lt;/p&gt;" style="verticalAlign=top;align=left;overflow=fill;fontSize=12;fontFamily=Helvetica;html=1;" parent="WIyWlLk6GJQsqaUBKTNV-1" vertex="1"><mxGeometry x="40" y="510" width="190" height="175" as="geometry"/></mxCell></root></mxGraphModel></diagram></mxfile>